<svg width="40" height="40" viewBox="0 0 40 40" fill="none" xmlns="http://www.w3.org/2000/svg">
<path d="M20 14C16.6852 14 14 16.6862 14 20C14 23.3146 16.6862 26 20 26C23.3146 26 26 23.3138 26 20C26 16.6854 23.3138 14 20 14ZM20 9.99999C25.5208 9.99999 30 14.4742 30 20C30 25.521 25.5258 30 20 30C14.479 30 9.99999 25.5258 9.99999 20C9.99999 14.479 14.4742 9.99999 20 9.99999ZM33 9.49829C33 10.8785 31.8784 11.9983 30.5 11.9983C29.1198 11.9983 28 10.8768 28 9.49829C28 8.11979 29.1214 6.99999 30.5 6.99999C31.8766 6.99825 33 8.11979 33 9.49829ZM20 4C15.051 4 14.2444 4.0131 11.9426 4.1156C10.3743 4.18922 9.32309 4.40014 8.34635 4.77934C7.47835 5.11597 6.85221 5.51795 6.18507 6.18509C5.51538 6.85479 5.11412 7.47925 4.77884 8.34765C4.39876 9.32663 4.1879 10.3762 4.1156 11.9423C4.0121 14.1504 4 14.9221 4 20C4 24.949 4.0131 25.7556 4.11558 28.0572C4.18924 29.6248 4.40044 30.6776 4.77872 31.652C5.11624 32.5212 5.51904 33.1488 6.18295 33.8128C6.85529 34.4842 7.48161 34.8868 8.34177 35.2188C9.33041 35.601 10.381 35.8122 11.9423 35.8844C14.1504 35.9878 14.9221 36 20 36C24.949 36 25.7556 35.9868 28.0572 35.8844C29.6214 35.811 30.675 35.5992 31.652 35.2212C32.5188 34.8846 33.1484 34.4804 33.8128 33.817C34.4852 33.1436 34.887 32.5188 35.2194 31.6566C35.6006 30.6716 35.8122 29.6196 35.8844 28.0578C35.9878 25.8496 36 25.0778 36 20C36 15.051 35.9868 14.2444 35.8844 11.9427C35.8108 10.3781 35.599 9.32297 35.2206 8.34635C34.8848 7.48075 34.4814 6.85269 33.8148 6.18509C33.144 5.51429 32.5212 5.11386 31.6522 4.77884C30.674 4.39908 29.6228 4.18792 28.0576 4.11562C25.8496 4.0121 25.0778 4 20 4ZM20 0C25.4332 0 26.1116 0.0199999 28.245 0.12C30.3732 0.21834 31.825 0.555 33.1 1.05C34.4182 1.55834 35.5316 2.245 36.6432 3.35666C37.7532 4.46834 38.44 5.58499 38.95 6.89999C39.4432 8.17333 39.78 9.62665 39.88 11.755C39.975 13.8883 40 14.5666 40 20C40 25.4334 39.98 26.1116 39.88 28.245C39.7816 30.3734 39.4432 31.825 38.95 33.1C38.4416 34.4184 37.7532 35.5316 36.6432 36.6434C35.5316 37.7534 34.4132 38.44 33.1 38.95C31.825 39.4434 30.3732 39.78 28.245 39.88C26.1116 39.975 25.4332 40 20 40C14.5666 40 13.8883 39.98 11.755 39.88C9.62665 39.7816 8.17665 39.4434 6.89999 38.95C5.58332 38.4416 4.46832 37.7534 3.35666 36.6434C2.245 35.5316 1.56 34.4134 1.05 33.1C0.555 31.825 0.22 30.3734 0.12 28.245C0.0250003 26.1116 0 25.4334 0 20C0 14.5666 0.0200003 13.8883 0.12 11.755C0.21832 9.62499 0.555 8.17499 1.05 6.89999C1.55832 5.58333 2.245 4.46834 3.35666 3.35666C4.46832 2.245 5.585 1.56 6.89999 1.05C8.17499 0.555 9.62499 0.22 11.755 0.12C13.8883 0.0249999 14.5666 0 20 0Z" fill="white"/>
</svg>
