<svg width="40" height="40" viewBox="0 0 40 40" fill="none" xmlns="http://www.w3.org/2000/svg">
<path d="M12.9813 34.3824C13.0287 33.7092 13.1242 33.0398 13.2672 32.3794C13.3931 31.7902 13.7754 30.1192 14.3355 27.6996L14.3497 27.6382C14.5959 26.5744 14.8598 25.4384 15.1237 24.305C15.282 23.6248 15.4052 23.0968 15.4868 22.9204C15.0983 22.0246 14.904 21.0526 14.9174 20.0746C14.9174 17.3998 16.4294 15.3272 18.3896 15.3272C19.109 15.3162 19.7972 15.6278 20.2746 16.18C20.7508 16.731 20.9706 17.467 20.8788 18.172C20.8788 19.077 20.7076 19.7688 19.971 22.2424C19.8296 22.7174 19.7328 23.0508 19.641 23.384C19.5372 23.7598 19.4502 24.1006 19.3754 24.4272C19.1836 25.2006 19.3602 26.022 19.8504 26.639C20.3394 27.2544 21.0822 27.5932 21.8618 27.5524C24.8464 27.5524 27.0622 23.5822 27.0622 18.4554C27.0622 14.5161 24.4804 11.9085 20.198 11.9083C18.0428 11.8225 15.9474 12.6505 14.3999 14.1997C12.8513 15.7502 11.9871 17.8874 12.0092 20.1228C11.9623 21.3266 12.3393 22.5072 13.0341 23.4106C13.3963 23.6882 13.5354 24.177 13.3833 24.5882C13.3012 24.9264 13.1032 25.6946 13.031 25.951C12.9873 26.2064 12.828 26.4262 12.6006 26.543C12.3716 26.6606 12.1015 26.6594 11.8904 26.5474C9.56818 25.5908 8.29738 22.9926 8.29738 19.6698C8.29738 13.6981 13.2806 8.4994 20.6814 8.4994C26.9524 8.4994 31.6442 13.1573 31.6442 18.7792C31.6442 25.844 27.7802 30.9884 22.2654 30.9884C20.6766 31.0404 19.1656 30.324 18.172 29.07L18.086 29.424C17.8978 30.1984 17.8036 30.5856 17.6716 31.1276L17.6678 31.143C17.3754 32.3434 17.1714 33.177 17.0922 33.4904C16.8804 34.1996 16.612 34.896 16.2922 35.5682C17.4822 35.8506 18.7236 36 20 36C28.8366 36 36 28.8366 36 20C36 11.1634 28.8366 4 20 4C11.1634 4 4 11.1634 4 20C4 26.3188 7.66292 31.7822 12.9813 34.3824ZM20 40C8.9543 40 0 31.0456 0 20C0 8.9543 8.9543 0 20 0C31.0456 0 40 8.9543 40 20C40 31.0456 31.0456 40 20 40Z" fill="white"/>
</svg>
