<svg width="221" height="192" viewBox="0 0 221 192" fill="none" xmlns="http://www.w3.org/2000/svg">
<path d="M17.9157 112.019C21.3162 112.101 24.7158 112.228 28.1161 112.322C30.9502 112.401 33.7867 112.488 36.6184 112.632C36.9176 112.647 37.2383 112.584 37.5146 112.7C38.2661 113.016 35.9019 112.939 35.0975 113.072C28.6762 114.127 22.3561 115.772 16.0633 117.407C11.6187 118.561 6.25112 119.246 2.0701 121.239C1.74101 121.396 2.79774 121.383 3.15936 121.337C10.8752 120.351 18.5777 118.804 26.2602 117.657C75.5361 110.303 125.247 102.96 175.013 99.9192C184.836 99.319 194.714 98.9917 204.557 99.1262C205.122 99.134 205.688 99.14 206.25 99.195C206.489 99.2184 205.841 99.4828 205.602 99.5138C202.983 99.854 200.334 99.9482 197.704 100.152" stroke="white" stroke-opacity="0.3" stroke-width="3" stroke-linecap="round"/>
<path d="M88.3054 107.71C92.4185 97.9196 104.214 68.3397 100.667 78.3485C97.5272 87.2049 97.4097 97.3432 98.1255 106.594C98.24 108.073 100.029 127.571 103.378 126.991C104.843 126.737 105.541 121.921 105.676 121.276C106.892 115.471 107.18 109.574 107.423 103.667C107.615 98.994 107.545 94.207 108.009 89.5516C108.221 87.418 108.707 93.7832 109.096 95.8917C109.204 96.4757 110.773 103.157 111.522 102.409C113.591 100.343 114.592 95.8081 115.452 93.1155C116.104 91.0773 116.904 85.6674 117.718 90.7791C118.165 93.5848 120.141 99.0794 119.182 101.85C118.72 103.183 115.555 101.879 115.066 101.74C107.389 99.5498 99.8972 97.1892 91.9842 95.8959C85.4079 94.8211 78.7563 94.2536 72.0928 94.3214C68.8431 94.3545 67.1237 94.5013 64.0254 94.8115C62.898 94.9244 58.8733 95.521 63.0821 94.672C81.5953 90.9376 100.206 87.6178 118.766 84.1283C143.102 79.5526 167.439 74.6898 192.006 71.4809C199.182 70.5436 206.504 69.6583 213.759 69.7266C215.578 69.7438 218.947 68.7942 219.146 70.6025C219.211 71.2002 218.387 71.5894 217.848 71.8558C216.041 72.7491 214.112 73.3742 212.206 74.0329C189.965 81.7224 166.899 87.1285 144.069 92.7552" stroke="white" stroke-opacity="0.3" stroke-width="3" stroke-linecap="round"/>
</svg>
